<svg width="87" height="85" viewBox="0 0 87 85" fill="none" xmlns="http://www.w3.org/2000/svg">
<path d="M39.8667 20.3871L1.56272 48.6446C-1.73546 51.8497 0.533573 57.4414 5.13534 57.4414C7.96305 57.4414 10.2615 59.7349 10.2615 62.5675V79.0045C10.2615 81.8322 12.555 84.1307 15.3876 84.1307H71.4959C74.3236 84.1307 76.622 81.8371 76.622 79.0045V62.5675C76.622 59.7398 78.9155 57.4414 81.7481 57.4414C86.3499 57.4414 88.6189 51.8497 85.3208 48.6446L47.0168 20.3871C45.0271 18.4562 41.8613 18.4562 39.8716 20.3871H39.8667Z" fill="#DDDDF0"/>
<path d="M31.7508 14.3199L18.2983 6.1945L27.9135 28.2673L50.6381 23.9253C50.9126 23.8714 51.1184 23.6361 51.1282 23.3519L51.9123 2.63168L44.5711 12.0901L34.4168 0L31.7508 14.315" fill="#F9D171"/>
<path d="M37.311 60.0508C37.3149 60.0581 37.3224 60.0725 37.3339 60.0929C37.3572 60.1343 37.3961 60.2008 37.4498 60.2868C37.5577 60.4597 37.7241 60.7073 37.947 60.9864C38.4003 61.5542 39.0462 62.2011 39.8623 62.6447C40.6546 63.0754 41.6187 63.3236 42.7979 63.1109C43.9998 62.8941 45.5571 62.1739 47.4622 60.4217C48.0569 59.8749 48.9823 59.9137 49.5292 60.5083C50.0761 61.103 50.0376 62.0284 49.4431 62.5754C47.2586 64.5845 45.2152 65.6477 43.3172 65.9901C41.3968 66.3364 39.7612 65.9196 38.4653 65.2152C37.1933 64.5238 36.2621 63.5655 35.6603 62.8118C35.3557 62.4302 35.125 62.0876 34.9678 61.8359C34.8891 61.7098 34.8281 61.6052 34.785 61.5287C34.7635 61.4905 34.7465 61.4591 34.7338 61.4354C34.7274 61.4235 34.7217 61.4137 34.7175 61.4057C34.7154 61.4017 34.7138 61.3981 34.7122 61.3952C34.7115 61.3937 34.711 61.3921 34.7103 61.3909C34.7101 61.3903 34.7096 61.3898 34.7094 61.3894C34.709 61.3886 34.7084 61.3877 36.0097 60.7194L34.7084 61.3875C34.3394 60.6689 34.623 59.7872 35.3416 59.4181C36.0599 59.0493 36.9406 59.3324 37.31 60.0503L37.311 60.0508Z" fill="#1D1D1B"/>
<path d="M77.2832 25.425C73.4459 29.6348 72.26 34.8491 77.5772 41.5974C73.3675 37.7601 68.1532 36.5742 61.4049 41.8914C65.2421 37.6817 66.4281 32.4674 61.1108 25.7191C65.3206 29.5564 70.5349 30.7423 77.2832 25.425Z" fill="#F9D171"/>
<path d="M47.7326 50.4072C47.4276 51.0109 46.6916 51.2532 46.0877 50.9485C45.4836 50.6436 45.2411 49.9072 45.5459 49.3031L46.5333 49.8013C45.5701 49.3152 45.5463 49.3029 45.5459 49.3022L45.5469 49.3007C45.5472 49.3 45.5474 49.2992 45.5479 49.2983C45.5488 49.2964 45.5503 49.2943 45.5517 49.2916C45.5544 49.2863 45.5579 49.2793 45.5622 49.271C45.5708 49.2545 45.5823 49.232 45.5971 49.2045C45.6268 49.1495 45.669 49.0734 45.7225 48.981C45.8294 48.7969 45.9845 48.5439 46.1815 48.2627C46.5617 47.72 47.1569 46.986 47.9259 46.468C48.7176 45.9347 49.835 45.5498 51.064 46.0545C52.2058 46.5234 53.1419 47.6477 53.9408 49.329C54.2312 49.9401 53.9709 50.671 53.3598 50.9614C52.7487 51.2518 52.0178 50.992 51.7273 50.3809C51.0242 48.9012 50.4345 48.4448 50.1332 48.3211C49.9192 48.2332 49.676 48.2437 49.2947 48.5005C48.8907 48.7727 48.5001 49.2236 48.1882 49.6688C48.0392 49.8815 47.9216 50.0736 47.8422 50.2105C47.8028 50.2784 47.7731 50.3316 47.7546 50.366C47.7454 50.3832 47.7391 50.3959 47.7355 50.4029C47.7344 50.4049 47.7332 50.4061 47.7326 50.4072Z" fill="#1D1D1B"/>
<path d="M33.0988 50.4072C32.7938 51.0109 32.0578 51.2532 31.4539 50.9485C30.8499 50.6436 30.6074 49.9072 30.9122 49.3031L31.8995 49.8013C30.9363 49.3152 30.9125 49.3029 30.9122 49.3022L30.9131 49.3007C30.9135 49.3 30.9136 49.2992 30.9141 49.2983C30.915 49.2964 30.9165 49.2943 30.9179 49.2916C30.9206 49.2863 30.9241 49.2793 30.9284 49.271C30.937 49.2545 30.9485 49.232 30.9634 49.2045C30.993 49.1495 31.0352 49.0734 31.0887 48.981C31.1956 48.7969 31.3507 48.5439 31.5477 48.2627C31.9279 47.72 32.5231 46.986 33.2922 46.468C34.0838 45.9347 35.2013 45.5498 36.4302 46.0545C37.572 46.5234 38.5081 47.6477 39.307 49.329C39.5974 49.9401 39.3372 50.671 38.726 50.9614C38.1149 51.2518 37.384 50.992 37.0936 50.3809C36.3904 48.9012 35.8007 48.4448 35.4994 48.3211C35.2855 48.2332 35.0422 48.2437 34.6609 48.5005C34.2569 48.7727 33.8663 49.2236 33.5544 49.6688C33.4054 49.8815 33.2878 50.0736 33.2084 50.2105C33.169 50.2784 33.1393 50.3316 33.1208 50.366C33.1116 50.3832 33.1053 50.3959 33.1017 50.4029C33.1007 50.4049 33.0994 50.4061 33.0988 50.4072Z" fill="#1D1D1B"/>
</svg>
